<svg version="1.1" id="Layer_1" xmlns="http://www.w3.org/2000/svg" xmlns:xlink="http://www.w3.org/1999/xlink" x="0px" y="0px"
	 width="100%" viewBox="0 0 960 1024" enable-background="new 0 0 960 1024" xml:space="preserve">
<path fill="#616161" opacity="1.000000" stroke="#616161" 
	d="
M801.069519,571.994629 
	C801.472595,594.530823 805.017212,616.144348 809.410278,637.694275 
	C812.835999,654.498779 814.186279,671.474426 813.563660,688.747925 
	C813.246887,697.538086 815.788940,706.527527 817.710815,715.279297 
	C820.492310,727.945496 822.311218,740.709106 824.117065,753.541626 
	C825.847656,765.839417 828.901733,777.973633 829.677795,790.451294 
	C829.760437,791.779114 830.050720,793.097290 830.085999,794.424194 
	C830.617554,814.392700 830.359131,834.369629 830.669312,854.343567 
	C830.955933,872.801147 829.964417,891.294006 829.064880,909.748413 
	C828.568115,919.939209 829.064209,929.669373 834.821594,938.532959 
	C835.761719,939.980408 836.767029,941.705994 835.878601,944.293518 
	C827.632324,944.293518 819.184509,944.308350 810.736938,944.280273 
	C809.168091,944.275085 808.395752,943.226929 807.997864,941.821045 
	C803.531616,926.039001 794.142334,912.774292 786.116150,898.795654 
	C779.915588,887.996521 772.784180,877.734253 762.804871,870.421753 
	C748.711060,860.094421 737.736816,846.733643 725.238037,834.868225 
	C709.054688,819.505127 693.846069,803.182739 678.387939,787.141113 
	C670.918945,779.390137 663.192139,771.340088 658.165955,760.861023 
	C650.860107,791.874634 634.765625,815.548889 608.260803,832.815552 
	C591.815796,843.528809 573.910645,851.136719 556.860596,860.495117 
	C548.823608,864.906494 539.341980,866.676392 530.530945,869.689880 
	C520.518372,873.114075 510.853058,877.948730 500.340088,879.413025 
	C481.507935,882.036133 463.000183,886.613953 443.850708,887.504272 
	C430.462280,888.126892 417.216034,891.397156 403.824982,892.476013 
	C386.094269,893.904541 368.815399,898.502869 350.982666,899.197876 
	C343.238739,899.499756 335.735199,902.427429 327.831360,902.412964 
	C323.961273,902.405823 320.842987,901.193665 317.685242,899.012268 
	C298.297852,885.619873 283.653381,868.280762 273.825470,846.892212 
	C268.764343,835.877686 268.762299,824.250916 270.566711,812.616760 
	C271.621704,805.814636 270.494965,799.006165 271.605042,792.211792 
	C274.648193,773.585632 275.056396,754.440063 282.865570,736.781067 
	C283.329315,735.732361 283.851410,734.644714 283.089813,732.822327 
	C276.194458,732.287537 269.009277,731.490234 261.804230,731.217163 
	C241.645416,730.453430 221.526917,731.804443 201.452164,733.290771 
	C191.003525,734.064453 180.728577,736.593506 171.419662,741.798279 
	C163.953781,745.972534 159.593033,753.379944 153.901260,759.383179 
	C148.849762,764.711182 145.037201,771.013977 141.225784,777.277283 
	C140.483047,778.497803 139.998764,780.076660 138.252289,780.430115 
	C136.409897,779.318237 137.015823,777.489136 136.984314,775.926392 
	C136.903687,771.928345 137.248581,767.901001 136.888321,763.933960 
	C136.300034,757.455566 138.324249,752.133057 141.903214,746.718811 
	C153.860428,728.629761 171.147781,719.531860 191.679718,714.606689 
	C212.434006,709.628235 233.503052,709.407043 254.561676,708.907532 
	C264.001526,708.683533 273.478485,709.951538 282.936401,710.576355 
	C298.597748,711.610962 312.839386,707.523438 324.607483,697.203735 
	C329.053436,693.305054 330.013214,686.831055 327.817078,680.909058 
	C324.998962,673.309631 322.385345,665.686646 316.208801,659.669128 
	C311.855042,655.427429 308.641052,649.977295 305.124725,644.922913 
	C298.882568,635.950500 290.614044,629.104492 281.701813,622.604004 
	C280.111053,626.970215 283.148285,631.458130 282.611237,637.036316 
	C277.359650,631.680481 275.753265,625.632996 273.721313,620.048584 
	C265.879120,598.495728 255.981277,577.758057 248.709351,555.977356 
	C245.263901,545.657654 243.829910,534.914490 241.050613,524.464111 
	C238.618622,515.319641 236.430084,506.119141 233.915512,496.985931 
	C230.219238,483.560577 228.354309,469.692047 230.126511,455.630829 
	C230.350937,453.850067 230.986282,452.008331 229.264206,450.118591 
	C225.282562,454.412811 226.941605,460.791290 223.979889,465.353546 
	C220.858826,464.154327 221.658508,461.808167 221.772507,460.044464 
	C222.543579,448.114685 223.233017,436.170441 224.434753,424.280029 
	C225.787216,410.898193 228.602768,397.511200 229.167389,384.242371 
	C229.980804,365.126587 235.820709,347.040161 237.501816,328.237610 
	C238.109283,321.443237 239.467270,314.670807 238.955002,307.827789 
	C238.618683,303.335358 239.849777,299.200806 241.268677,295.168610 
	C243.828506,287.894073 245.125458,280.499023 245.677399,272.805267 
	C246.178070,265.826355 249.299713,259.358551 251.588348,252.800354 
	C261.372253,224.764008 276.361023,199.409973 292.617859,174.761200 
	C303.748901,157.884216 317.018433,142.752594 330.512787,127.724442 
	C340.615387,116.473587 351.677795,106.435822 363.910400,97.833130 
	C377.775330,88.082489 392.136780,78.989906 407.344238,71.342972 
	C416.704346,66.636314 425.525421,60.704838 435.749420,57.959545 
	C448.383179,54.567181 460.994904,50.178169 474.241333,50.823917 
	C485.877502,51.391167 496.823639,55.660477 507.602295,59.916901 
	C509.031433,60.481258 510.029877,61.423054 511.605652,60.473751 
	C516.030151,57.808331 521.032715,57.147778 526.009460,57.006004 
	C537.236755,56.686180 548.360229,53.219322 559.728577,56.625664 
	C574.312378,60.995441 587.981262,67.255890 601.147156,74.812737 
	C609.635864,79.684982 617.407288,85.751534 626.549622,89.577209 
	C629.340698,90.745178 631.428467,93.537682 633.925659,95.473526 
	C646.286804,105.056046 658.891418,114.291779 669.686951,125.792610 
	C674.290710,130.697128 677.010986,136.786865 681.572754,141.649765 
	C693.537659,154.404602 700.953430,170.186493 710.169861,184.800247 
	C720.639771,201.401520 728.084290,219.431885 735.494507,237.311600 
	C741.086792,250.804932 747.049988,264.131226 752.585510,277.630951 
	C755.602844,284.989288 755.783325,293.465790 757.732300,301.316650 
	C761.805664,317.724365 766.183350,334.054749 769.548950,350.634125 
	C770.051941,353.112091 770.215942,355.559326 770.313904,357.904419 
	C769.751770,359.866058 767.630249,357.842133 766.894409,359.626831 
	C770.786499,377.805756 774.733276,396.165955 778.644897,414.533691 
	C781.578674,428.309570 786.914062,441.448944 789.406860,455.341858 
	C791.019653,464.330902 793.001038,473.254822 793.964233,482.355835 
	C795.734863,499.087585 795.479675,515.916199 796.476624,532.672058 
	C796.960999,540.814514 797.561768,549.100708 800.400208,557.118774 
	C801.932800,561.448181 800.928162,566.675720 801.069519,571.994629 
M668.365845,591.431458 
	C664.532104,593.197998 664.062866,590.528137 663.886475,587.868652 
	C663.676453,584.702026 664.334167,581.453735 663.198059,577.987732 
	C660.184631,580.051025 658.771606,582.515381 657.633118,585.645813 
	C661.479004,584.469910 662.121399,586.586304 662.134521,589.202576 
	C662.164612,595.200073 662.322449,601.209534 661.994812,607.190430 
	C661.848145,609.867859 661.580017,612.779114 659.575684,615.502747 
	C652.206543,609.241760 657.965637,600.730408 655.114014,593.602112 
	C652.942932,597.288208 651.669006,601.231018 651.561279,605.013611 
	C651.091858,621.498413 646.808716,637.586548 646.765625,654.083252 
	C646.760437,656.059082 646.208435,657.530151 644.259583,657.718933 
	C641.865540,657.950806 641.797363,655.920959 641.741760,654.263855 
	C641.619080,650.606445 642.404114,646.713806 641.411438,643.330078 
	C638.800476,634.430054 639.851257,625.624268 640.482666,616.680054 
	C640.765869,612.667847 643.925110,608.838989 641.306335,604.447327 
	C633.548767,609.247559 636.517578,617.226746 635.840942,623.827332 
	C635.086121,631.190735 635.735474,638.722656 634.268982,646.037659 
	C633.296936,650.886353 632.083130,651.151245 628.272705,648.091003 
	C628.401062,651.743042 626.921204,655.779968 630.257751,658.514954 
	C634.475098,661.971985 635.483582,666.317444 635.221375,671.418335 
	C635.024902,675.239807 635.052979,679.093384 635.299255,682.912170 
	C635.665161,688.584717 636.312195,694.239075 636.858459,700.103760 
	C639.707703,699.337952 639.624756,697.595276 639.703064,695.946716 
	C639.805786,693.785217 639.725769,691.595520 640.059204,689.470459 
	C640.330933,687.739014 640.507202,685.410828 642.773987,685.193909 
	C645.453796,684.937561 645.880310,687.426208 646.239136,689.303345 
	C647.190369,694.280151 646.007385,699.239075 645.763000,704.207703 
	C645.583435,707.859192 646.141418,711.226318 649.739685,714.935181 
	C649.020142,710.456482 649.463196,707.071289 648.987793,703.922852 
	C646.541382,687.721313 645.460205,671.575867 648.848328,655.375977 
	C649.186462,653.759521 648.941162,651.491333 650.888062,651.240845 
	C655.109192,650.697876 654.634033,647.543579 654.713074,644.921753 
	C654.928833,637.761475 654.828735,630.592224 654.937988,623.427734 
	C654.966736,621.544373 654.475891,619.275391 657.428284,618.466858 
	C659.551758,621.141785 660.536926,624.716370 660.283142,627.600281 
	C659.527039,636.192871 661.161072,644.963867 658.445129,653.413086 
	C658.047485,654.650085 658.371399,656.468750 656.778992,656.684631 
	C653.426025,657.139221 654.245911,659.545715 654.091675,661.574829 
	C653.250854,672.638245 656.074463,683.389893 656.847656,694.312866 
	C657.455688,702.903748 659.155396,711.203552 662.290649,720.159607 
	C662.594910,718.717285 662.754089,718.243225 662.787231,717.760437 
	C663.015686,714.435547 664.172180,710.370972 667.294006,710.352844 
	C671.318909,710.329407 669.809814,714.862305 670.311279,717.581055 
	C670.341125,717.743103 670.309326,717.915894 670.332886,718.079834 
	C671.033752,722.962891 669.063599,729.071533 676.303467,730.978210 
	C676.750061,731.095886 676.901001,732.117371 677.314270,732.614624 
	C681.805786,738.019714 683.730774,744.600342 685.188232,751.201599 
	C687.026489,759.527161 691.642578,765.699341 697.345520,771.856750 
	C705.779419,780.962646 716.430603,787.367188 724.914673,796.358887 
	C744.623840,817.247314 767.180054,835.553711 782.405518,860.475891 
	C792.707397,877.338989 808.488464,890.051636 818.148071,907.419983 
	C818.247559,907.598877 818.702332,907.580200 818.987549,907.652771 
	C821.885437,899.429688 819.698364,890.894287 820.609741,882.542664 
	C821.420288,875.114807 822.475220,867.616211 821.572083,860.136353 
	C820.412231,850.530884 820.097961,840.905579 819.885376,831.251465 
	C819.681946,822.014099 817.669800,812.815796 813.975708,804.629700 
	C809.896729,795.590759 809.217590,786.013672 806.804016,776.756592 
	C805.956116,773.504700 807.647766,769.590759 808.179871,765.979065 
	C811.484558,770.413818 810.842346,775.516357 812.009399,780.201721 
	C813.210388,785.023132 817.588013,787.817017 819.224426,792.434998 
	C817.149963,786.400146 815.982971,780.349243 815.061279,774.135681 
	C812.914429,759.663574 810.070557,745.293945 807.449707,730.893616 
	C806.651733,726.509094 806.543274,721.711060 804.595398,717.876343 
	C798.020813,704.932983 794.987915,691.006714 791.979187,677.030273 
	C791.577332,675.163330 791.820618,673.067139 793.981384,672.468750 
	C796.341248,671.815247 798.237305,673.060486 799.197815,675.256531 
	C800.018494,677.132935 800.507812,679.154236 801.143738,681.111511 
	C799.691406,672.682800 800.061890,663.765808 794.791565,655.912842 
	C793.020508,659.337402 795.169312,662.876404 792.748779,665.570068 
	C790.696167,664.549500 790.596741,662.518066 790.095215,660.874268 
	C788.059937,654.203491 786.309326,647.436096 783.346497,641.091248 
	C782.262329,638.769592 782.150635,636.964966 784.023621,634.795776 
	C786.206726,632.267395 785.968994,629.300537 783.892517,626.532043 
	C781.354736,623.148499 778.781799,619.780945 777.069519,615.953430 
	C774.425537,616.737488 777.127747,619.729309 774.430542,620.616638 
	C760.480103,594.449707 758.316223,566.738831 763.556946,537.958618 
	C766.977356,547.780090 771.843872,557.172791 769.825317,568.288818 
	C768.357544,576.371033 768.734741,584.532166 771.182617,592.508179 
	C771.640198,593.999207 771.976501,595.755249 773.441467,596.167786 
	C778.358154,597.552368 779.177185,601.668884 780.369873,605.669556 
	C784.776428,620.451416 790.852112,634.707153 794.284424,649.798035 
	C794.737549,651.790344 795.439087,653.588989 798.564575,653.252075 
	C798.000305,645.209045 798.333740,636.753540 796.134644,629.675476 
	C792.140808,616.820618 789.580566,603.637756 785.584595,590.836304 
	C784.545410,587.507019 785.507629,583.017334 783.564392,581.000732 
	C778.017395,575.244141 777.231140,568.251831 777.242798,561.267700 
	C777.253174,555.032227 775.922546,549.144165 775.082642,543.102600 
	C773.951477,534.966187 771.710876,526.880188 773.008179,518.405518 
	C774.016113,518.756531 774.710876,518.998535 775.638489,519.321594 
	C774.811707,515.223206 773.499878,511.360962 773.343567,507.452484 
	C772.865845,495.507751 768.745544,484.449188 765.200073,473.316071 
	C763.020874,466.473083 760.903442,459.682800 759.968933,452.584351 
	C759.620544,449.937958 759.096924,447.004333 761.274658,444.656464 
	C763.782959,445.444000 763.551941,447.695374 763.899658,449.275360 
	C764.839355,453.545929 766.516418,457.488434 768.261963,461.452667 
	C772.229919,470.464447 774.466248,479.953918 776.195618,489.631348 
	C777.448059,496.640350 777.146667,504.220520 782.687683,510.823700 
	C782.824524,507.485901 782.765442,504.948212 782.420227,502.318268 
	C781.022339,491.669647 777.755249,481.492737 775.278809,471.125580 
	C773.021790,461.677124 771.702332,452.004517 768.342773,442.763794 
	C766.354248,437.293976 765.316040,431.341919 766.034241,425.682068 
	C766.545776,421.650848 766.024231,418.149597 764.949707,414.528442 
	C759.711792,396.876648 753.533142,379.503662 749.205811,361.584381 
	C748.648132,359.275299 748.201111,356.752747 750.356750,354.000244 
	C755.567200,362.659912 757.967285,371.972504 761.438782,381.517548 
	C762.370850,377.313843 761.409973,374.070740 760.477234,370.901459 
	C756.363892,356.923889 751.985229,343.022797 748.010315,329.006805 
	C746.662292,324.253357 746.337097,319.219086 745.341125,314.354797 
	C742.046997,298.267029 733.228638,283.994141 730.929077,267.373657 
	C729.334473,255.847977 724.112549,244.852509 720.887817,233.513046 
	C719.048767,227.046158 715.835327,221.586151 711.063721,217.008591 
	C709.061401,215.087708 707.869751,213.128250 707.511292,210.215439 
	C706.946106,205.622543 706.557922,199.880905 702.566162,197.541565 
	C693.733948,192.365540 690.589905,183.693619 686.504517,175.425690 
	C686.358704,175.130646 686.112122,174.887207 685.939941,174.603088 
	C681.386902,167.088379 676.837524,159.571457 672.091858,151.731750 
	C676.699585,149.418747 674.413940,147.347168 672.032959,145.366837 
	C670.499207,144.091095 668.935425,142.819229 667.246948,141.767456 
	C661.671326,138.294403 655.558167,135.811539 651.039368,130.535950 
	C648.992615,128.146423 646.118347,125.713783 642.426453,124.499489 
	C640.468872,129.628906 638.450256,128.690994 635.007690,125.521133 
	C629.622742,120.562805 623.092468,117.251518 616.156555,114.534241 
	C600.602051,108.440460 585.270325,101.778137 569.780334,95.319122 
	C573.904541,90.603966 577.567932,89.876503 581.954407,91.963501 
	C591.384460,96.450203 600.924805,100.710396 610.490845,104.901726 
	C612.648804,105.847214 614.981323,106.791069 618.362610,106.373726 
	C612.114563,101.261116 606.224609,96.943420 599.873962,93.444778 
	C589.135071,87.528557 579.678040,79.266167 567.497864,75.953812 
	C557.093079,73.124283 546.960266,74.046249 536.855713,77.218445 
	C538.772461,77.941147 540.689514,78.327621 542.625671,78.538605 
	C548.240112,79.150421 553.888916,79.511818 559.469421,80.340637 
	C562.059021,80.725250 565.212402,81.689598 564.301392,85.341858 
	C563.455444,88.732803 560.434631,88.476128 557.702026,87.990601 
	C552.020752,86.981148 546.633240,88.195946 541.600342,89.581284 
	C540.405701,91.457130 542.573425,92.834129 541.385437,94.267258 
	C541.262573,94.376289 541.156067,94.549141 541.014648,94.585251 
	C531.051697,97.129639 529.433655,100.117218 532.705994,109.656914 
	C533.062561,110.696434 533.262085,112.171959 532.793213,113.049034 
	C530.204346,117.892052 533.588196,118.845726 536.987183,119.675293 
	C540.527161,120.539307 543.691467,121.981560 546.622803,124.473434 
	C542.944946,127.285652 540.270447,124.950027 537.274780,123.767036 
	C534.087952,122.508545 530.687439,121.403793 527.055420,122.728973 
	C526.924866,126.028069 528.379150,127.611427 531.664001,127.839211 
	C537.804321,128.265015 542.201782,133.827057 548.564880,133.743347 
	C548.655762,133.742157 548.754395,134.325821 548.887573,134.761078 
	C547.700745,136.228943 544.186951,135.241455 544.650146,138.597641 
	C546.033325,141.083359 550.178955,139.517746 551.704163,143.747269 
	C538.488159,141.976898 525.894714,141.046143 513.910522,135.760605 
	C517.051147,138.570633 519.856506,142.128021 523.236755,143.594696 
	C532.900024,147.787506 540.538818,156.176025 551.753479,157.189743 
	C553.930542,157.386536 556.061218,158.332489 558.423950,158.548126 
	C561.888367,158.864288 565.497681,159.732681 568.410278,162.250305 
	C565.822632,164.529617 565.119690,165.050552 562.715576,163.980728 
	C550.381714,158.492035 537.118652,159.778442 524.226746,158.296127 
	C519.171448,157.714874 516.402710,159.588867 514.895691,164.066025 
	C515.997986,166.071503 518.098145,165.837875 519.745056,166.435074 
	C521.344971,167.015244 522.872314,167.344879 523.412903,169.334610 
	C523.938782,171.270065 525.355835,172.638550 527.435669,172.291397 
	C529.127686,172.009003 530.385925,170.868164 530.311646,168.792480 
	C530.241882,166.840775 531.739929,166.820480 533.096558,166.825668 
	C534.266846,166.830139 535.670410,166.853943 535.670654,168.472870 
	C535.671021,171.781403 538.024109,171.552475 540.186768,171.684555 
	C546.869141,172.092667 553.348022,173.372345 559.604065,175.845947 
	C562.099304,176.832535 564.552002,177.823425 566.673706,179.477951 
	C567.996277,180.509384 568.469788,181.887970 567.763489,183.467422 
	C566.996155,185.183487 565.687195,185.153564 564.008118,184.768570 
	C560.561462,183.978333 557.365784,182.589401 554.214294,181.088318 
	C548.677124,178.450897 542.707214,177.863937 536.096008,176.381027 
	C537.590698,180.335251 540.438599,180.986008 542.900818,182.060593 
	C546.863892,183.790192 550.915527,185.324036 554.831970,187.150177 
	C556.856995,188.094391 558.596191,189.511597 557.310669,192.247299 
	C556.389221,194.208130 557.588501,195.601501 558.413635,197.284332 
	C560.515259,201.570694 564.888672,202.242264 568.478210,204.134094 
	C572.933411,206.482208 572.976990,206.399536 571.542847,210.787888 
	C573.704651,213.292801 576.678284,212.827896 579.450195,212.780624 
	C581.556580,212.744720 583.958496,213.539185 583.373962,215.375519 
	C582.480835,218.181107 584.188110,220.150955 584.714722,222.770798 
	C581.363831,222.626160 577.889709,221.350800 576.593201,225.304123 
	C577.040344,226.574936 577.932434,226.666870 578.685364,226.979507 
	C584.270630,229.298767 590.517578,230.544632 593.631897,236.752960 
	C594.197266,237.880005 595.675781,238.586868 597.123352,237.908630 
	C598.546265,237.241898 598.746033,235.936142 598.541687,234.502853 
	C598.411133,233.586807 597.507812,232.665237 598.507202,231.726669 
	C599.925598,231.215317 600.723816,232.154877 601.398071,233.080948 
	C606.726746,240.400070 613.600525,246.392899 618.228760,254.403946 
	C626.124329,268.070312 636.374695,280.320038 643.281738,294.595154 
	C645.258728,298.681152 648.921082,301.653473 649.365845,306.881195 
	C650.359192,318.555328 650.644653,330.375336 653.727539,341.790924 
	C656.386536,351.636810 661.059265,360.701965 665.412659,369.833923 
	C669.417969,378.235657 672.266052,387.139099 671.978394,396.098785 
	C671.787476,402.043335 672.013672,407.164276 674.833008,412.248383 
	C676.170349,414.659851 677.679932,416.998535 680.810547,416.773682 
	C683.963440,416.547211 686.569153,414.876129 688.075439,412.117676 
	C692.841858,403.388916 702.845215,397.950409 712.706482,398.941833 
	C728.600098,400.539734 741.025391,413.950470 740.901917,429.862244 
	C740.816895,440.824432 740.528076,451.789093 740.087769,462.754486 
	C739.199585,484.875397 733.331299,504.970825 721.553040,523.627197 
	C709.288940,543.053040 698.735535,562.911499 701.886536,587.421265 
	C703.311523,598.504822 698.797974,609.705261 700.064331,621.044373 
	C700.092041,621.292969 699.732605,621.584839 699.459106,622.000427 
	C693.835388,621.125244 692.454651,625.617554 691.581604,629.419617 
	C689.957214,636.493958 689.162903,643.760620 688.071716,650.954529 
	C687.807007,652.699585 687.476379,654.447571 685.324158,654.460144 
	C683.408997,654.471313 683.227844,652.742920 682.745605,651.295715 
	C681.369934,647.167114 682.579346,643.030579 682.545166,638.902222 
	C682.484314,631.565979 683.592590,624.648987 687.439697,618.061768 
	C690.758789,612.378540 693.503357,606.330078 692.910583,599.189941 
	C692.418030,593.256592 692.755615,587.262939 693.467712,581.257812 
	C694.174500,575.296875 693.622437,569.186707 693.622437,562.446411 
	C684.194214,570.186279 684.190491,570.185547 681.985718,581.710938 
	C681.696838,583.220886 681.323303,584.978149 680.011597,585.622009 
	C674.029053,588.558594 674.886047,594.489868 674.294983,599.382751 
	C673.834473,603.195374 673.056030,606.892029 672.151367,610.555359 
	C671.027344,615.106567 670.387207,619.643738 670.232605,624.333435 
	C669.745972,639.088013 673.274231,653.691650 671.475586,668.527588 
	C670.516968,676.434814 670.718811,684.481934 670.364319,692.464417 
	C670.314636,693.584167 670.440002,694.855835 668.943970,695.505493 
	C666.465393,695.076172 665.810852,692.652893 665.988403,691.043640 
	C666.855286,683.189331 662.408752,676.312927 662.224792,668.779541 
	C662.122437,664.588989 659.787598,660.473267 661.940247,656.163818 
	C664.850098,650.338440 666.309509,644.369751 664.800781,637.654968 
	C663.226868,630.649353 662.880676,623.163330 664.683105,616.354370 
	C666.904846,607.961121 667.805664,599.487427 669.549500,590.583923 
	C673.570618,585.570923 674.167969,579.937988 672.027771,573.791504 
	C671.024597,579.535522 670.021484,585.279541 668.365845,591.431458 
M626.140503,517.714233 
	C630.698853,507.134949 635.117737,496.497955 641.940735,487.066071 
	C643.476929,484.942413 644.664856,482.429626 645.446777,479.919556 
	C650.538452,463.576691 652.121643,446.765564 651.689270,429.727722 
	C651.609497,426.580811 650.205505,423.135010 651.090149,420.362274 
	C653.225769,413.668152 652.584351,407.465515 650.767761,400.858948 
	C647.563660,389.206177 646.367065,376.992767 640.818115,366.001373 
	C640.299866,364.974823 639.569580,363.845337 640.166748,362.687683 
	C644.318542,354.638672 640.942322,347.551300 637.531189,340.386566 
	C635.239441,335.573181 631.430115,331.117615 633.659973,325.057983 
	C633.981628,324.184143 633.278198,322.793884 632.775940,321.777679 
	C627.971863,312.058868 622.600952,302.697113 616.312378,293.820740 
	C611.690430,287.296875 606.240723,281.647644 599.776428,276.542389 
	C605.515686,274.075165 605.949463,271.663910 601.898132,267.779816 
	C600.940735,266.861938 599.768005,266.171844 598.783325,265.278900 
	C589.079346,256.479034 577.204651,250.890381 566.598999,243.437149 
	C561.248535,239.677063 555.658752,236.606354 549.634460,234.068634 
	C542.449036,231.041763 534.769043,229.706909 527.598572,226.375565 
	C519.693970,222.703110 511.617310,218.445282 502.823486,217.508850 
	C491.380707,216.290344 480.668030,211.640945 469.119873,211.123566 
	C465.767761,210.973389 464.628571,208.732056 465.911438,205.457443 
	C467.252747,202.033752 466.921600,197.620453 468.661438,194.991684 
	C472.167633,189.694107 474.327118,184.196121 475.622772,178.148529 
	C475.743256,177.586121 476.380676,176.977737 476.933746,176.691040 
	C479.786560,175.212280 481.114441,172.557541 482.424713,169.864182 
	C484.520813,165.555542 487.792297,162.696609 492.592651,161.854614 
	C494.423798,161.533417 495.937531,160.789337 495.994232,158.825699 
	C496.106415,154.941513 497.853485,152.396530 501.370392,150.785339 
	C502.281830,150.367767 503.239258,149.339279 502.931274,147.644211 
	C498.134399,146.478058 498.569519,144.018326 501.150452,140.508438 
	C504.896851,135.413498 503.123199,127.640442 509.127930,123.488091 
	C509.424133,123.283272 508.891235,122.103981 509.160278,121.600761 
	C511.962250,116.359848 510.254089,108.646942 518.033997,106.180649 
	C514.594360,100.056328 518.126953,95.865929 521.660339,91.627480 
	C520.079163,88.996910 518.173035,87.972984 515.334106,89.143410 
	C511.447693,90.745682 507.623688,92.447662 505.487885,96.387703 
	C501.995483,102.830376 496.603943,108.068062 493.280548,114.461082 
	C491.082764,118.688873 489.702820,123.082008 486.204498,126.743904 
	C484.222168,128.818909 483.937866,132.510864 480.953064,134.280029 
	C479.157990,135.343979 479.291138,136.787354 480.318573,138.538513 
	C483.125275,143.322235 482.400269,145.483627 477.302155,148.255646 
	C476.005096,148.960876 474.514099,149.434082 474.262115,151.148636 
	C475.101288,153.118210 477.962646,151.965652 478.711029,154.511627 
	C477.373688,157.647797 475.285278,159.949814 471.224426,160.266449 
	C465.264801,160.731140 459.334381,161.972610 453.382874,162.032883 
	C446.594879,162.101624 440.279572,159.591873 432.685425,156.654785 
	C439.140625,152.979187 444.916077,151.364624 450.480499,148.961777 
	C428.824738,147.824921 407.219025,146.953217 386.250122,154.038239 
	C385.551971,150.859009 388.431641,151.445053 388.555145,149.710068 
	C383.969025,149.885223 379.503662,152.814896 374.551544,150.389191 
	C375.831909,147.172455 378.583954,146.971741 380.858582,146.907150 
	C386.839813,146.737305 392.870117,146.308731 398.807983,147.406067 
	C401.642395,147.929871 404.087891,147.689972 406.152039,145.415588 
	C404.858429,144.181427 401.745026,144.811813 402.089722,141.967667 
	C402.378540,139.584595 404.819519,139.871490 406.420349,139.261292 
	C410.584412,137.674103 414.719452,136.414215 417.925079,141.205353 
	C418.322266,141.798950 419.780151,141.894226 420.737366,141.869217 
	C430.744202,141.607651 440.667633,142.380219 450.556366,143.903275 
	C452.792053,144.247604 455.121185,143.636246 455.663269,141.006256 
	C456.275452,138.036087 453.612427,137.668182 451.708618,136.769424 
	C449.410492,135.684540 446.477509,137.167328 444.364899,135.389603 
	C444.762634,133.673065 445.923492,133.760834 446.824860,133.519592 
	C450.186432,132.619919 453.678345,132.300995 456.937988,130.892426 
	C458.768951,130.101242 460.247223,129.213043 460.434814,127.130653 
	C460.644562,124.802711 458.985535,124.444374 457.145050,123.661156 
	C450.776642,120.951157 444.322205,119.141281 437.339386,119.827415 
	C435.219727,120.035690 433.476837,119.365013 433.410126,117.087708 
	C433.337585,114.609543 435.575745,114.865807 437.118958,114.951965 
	C443.687042,115.318619 450.393402,114.836426 456.338287,118.759506 
	C458.805817,120.387856 461.787781,120.032257 464.535248,119.039520 
	C465.865997,118.558670 466.691681,117.533203 466.736115,116.002289 
	C466.780334,114.479446 466.207336,113.444977 464.665070,113.028847 
	C463.728912,112.776245 462.640533,112.760307 462.046112,111.388412 
	C463.138733,108.596893 465.721710,108.150032 468.371521,107.828232 
	C470.251862,107.599892 472.373077,107.312988 472.196808,104.890350 
	C472.057465,102.975822 470.225800,102.416153 468.447601,102.300346 
	C462.321747,101.901375 456.186462,101.611267 450.072754,101.074776 
	C445.626221,100.684578 441.208099,99.970810 436.356873,99.347260 
	C438.404266,96.196754 440.202087,95.654472 443.120209,95.795441 
	C452.092590,96.228905 461.098572,95.975060 470.091492,95.962570 
	C471.263733,95.960945 472.450073,95.840340 473.371735,94.130508 
	C470.471710,89.573196 463.597961,90.182114 460.488495,85.480743 
	C462.771820,82.835693 464.562866,85.107948 466.438599,85.587784 
	C468.418701,86.094322 470.253967,88.753250 472.501526,85.769257 
	C473.162415,84.891792 474.368011,85.868294 475.113739,86.501144 
	C477.290314,88.348137 479.051819,87.654213 480.678162,85.722183 
	C482.312714,83.780396 481.590515,81.982872 480.285553,80.295982 
	C478.622314,78.145958 476.420685,76.643509 474.011139,75.440552 
	C463.045349,69.966003 451.397491,70.716652 439.814392,72.112000 
	C436.086212,72.561111 432.397797,74.266663 429.593109,77.329536 
	C437.347534,74.964531 444.908966,75.213486 452.443970,77.152328 
	C452.293945,80.005798 450.674011,80.516670 449.406250,81.107468 
	C444.891235,83.211464 439.229523,83.693359 437.978363,90.118530 
	C437.828156,90.889923 435.802826,91.432068 434.566528,91.834373 
	C425.435425,94.805733 416.053497,97.026863 407.297241,101.123878 
	C406.254669,101.611702 404.813538,102.529182 403.545349,100.542282 
	C407.246735,93.839088 416.444183,95.854729 421.118652,90.243874 
	C410.240753,86.818298 393.792023,94.344337 369.601227,113.597946 
	C373.188354,113.788719 375.853058,110.101463 379.549164,111.464684 
	C378.524811,114.398430 376.738495,115.912689 374.003967,116.946091 
	C365.587738,120.126640 358.992981,125.713135 352.807312,132.288879 
	C347.346466,138.094070 342.075775,143.970520 336.998413,150.115555 
	C332.668549,155.355881 327.650238,160.119812 323.752686,165.687317 
	C310.386810,184.779877 297.645142,204.151291 287.864716,225.545197 
	C275.647949,252.268326 265.365936,279.373718 260.998444,308.567474 
	C259.009674,321.860809 258.353333,335.367126 255.218491,348.460785 
	C252.833527,358.422394 253.662796,369.104431 249.427170,378.496735 
	C246.067001,385.947754 246.822266,393.828949 244.917099,401.390839 
	C247.245300,387.266876 254.145401,374.891785 259.522247,361.941986 
	C261.686188,356.730347 262.784637,351.029572 265.301666,346.020569 
	C271.530975,333.624023 275.419952,320.577118 278.180023,307.042297 
	C281.506866,290.728180 287.630310,275.188599 292.177429,259.205688 
	C292.740662,257.225800 293.190186,254.460556 295.795746,254.356613 
	C298.221313,254.259842 298.696930,252.660965 299.777435,251.238174 
	C305.813538,243.289963 311.360657,234.859253 318.210175,227.675980 
	C323.441010,222.190292 329.545654,217.421051 334.758331,211.828079 
	C336.834778,209.600128 338.902771,207.803635 341.779297,206.610703 
	C346.060638,204.835205 349.953003,201.938812 350.223755,196.971664 
	C350.398193,193.771500 351.771271,192.788391 354.206024,191.626816 
	C361.449890,188.170868 369.210663,187.442490 377.016479,186.820969 
	C379.275421,186.641113 381.779175,186.951859 382.502350,183.290909 
	C372.386230,180.015900 362.759583,184.156631 352.351990,185.330460 
	C353.161865,183.988800 353.304779,183.404633 353.658325,183.216705 
	C365.457123,176.944550 378.102295,172.730042 390.596436,168.158752 
	C391.391937,167.867676 392.564240,168.234467 393.437988,168.594406 
	C396.948944,170.040710 400.310028,169.149918 403.648804,168.067856 
	C408.075073,166.633362 412.415436,164.898209 416.900787,163.695145 
	C419.559296,162.982071 422.345459,161.423492 426.390015,163.368866 
	C421.183472,165.808243 416.836517,167.844864 411.298462,170.439545 
	C420.481537,171.392136 428.150909,173.447540 436.240570,172.080841 
	C439.635254,171.507324 441.722137,170.704285 441.148407,165.873764 
	C449.470673,168.957062 457.447266,168.445618 465.718994,168.061005 
	C465.358246,170.098633 464.842468,171.153534 465.076050,172.002167 
	C466.350433,176.632080 463.977997,178.902435 460.264893,181.024597 
	C458.792786,181.865967 456.413300,183.622009 457.377014,186.169739 
	C459.487549,191.749313 458.295624,196.015533 453.198730,199.323822 
	C451.795319,200.234741 450.160156,201.402710 450.327728,203.680054 
	C450.422272,204.965378 449.245361,206.248459 448.289764,206.219238 
	C444.348755,206.098740 441.362457,209.105042 437.565491,209.214249 
	C426.419678,209.534805 415.304840,210.769806 404.129639,210.283249 
	C401.481354,210.167953 398.859009,210.283539 396.209167,210.961594 
	C374.640686,216.480545 355.146149,226.339340 336.987701,239.023804 
	C335.787994,239.861877 333.914734,241.247131 334.826019,242.540482 
	C338.233215,247.376144 333.933746,248.484482 331.374146,250.395828 
	C323.085541,256.585205 313.536652,261.731934 313.339386,274.143890 
	C313.303497,276.403839 312.336578,278.652985 311.770325,280.899780 
	C309.742249,288.946808 307.520111,296.951447 305.767059,305.057648 
	C305.175995,307.790710 305.459717,310.592834 302.928955,312.614319 
	C296.096161,318.072144 294.335968,326.124847 292.151489,333.971375 
	C289.717804,342.712952 289.431000,351.886169 285.763306,360.465240 
	C283.863708,364.908539 280.862152,368.691010 279.402039,373.354004 
	C275.976837,384.292786 272.352234,395.160583 270.342499,406.482635 
	C267.200958,424.180878 261.224457,441.405396 263.822174,459.975494 
	C265.146759,469.444214 264.774933,479.243042 264.896179,488.852295 
	C265.061005,501.910706 267.476593,514.596436 268.814514,527.455200 
	C270.114746,539.951721 275.719666,551.022583 279.964355,562.538208 
	C283.240173,571.425537 286.452667,580.441345 292.301910,588.047058 
	C298.340851,595.899475 302.564636,604.762451 307.313599,613.347595 
	C313.350128,624.260437 320.475677,634.347046 330.954590,643.623413 
	C324.884521,631.376404 321.429291,619.694336 319.136414,607.653381 
	C318.519257,604.412537 318.960907,601.408691 321.664307,598.710266 
	C322.296448,599.866333 322.880157,600.839417 323.375702,601.855530 
	C326.403992,608.065247 326.525970,615.138672 328.785126,621.444458 
	C333.288269,634.013794 336.849121,647.202881 346.679565,657.224365 
	C349.694153,660.297546 352.508179,663.693054 354.792847,667.331116 
	C359.868500,675.413269 368.086578,678.627197 376.338165,681.568970 
	C386.613983,685.232300 397.320404,686.579041 408.279724,686.055603 
	C411.385376,685.907288 414.529480,686.824463 417.669617,687.092712 
	C431.232758,688.251160 444.859192,689.737366 458.073212,685.023926 
	C462.098572,683.588196 466.738159,683.427673 470.048553,680.371399 
	C479.485687,671.658691 487.687897,661.773193 495.707153,651.811707 
	C502.349609,643.560486 506.336487,633.437439 516.300049,627.576416 
	C522.366211,624.007935 527.707825,618.935059 534.175415,615.860596 
	C538.131836,613.979858 541.260254,610.773804 545.082764,608.682129 
	C546.627991,611.213196 545.273071,612.487610 544.475342,613.872131 
	C541.332947,619.326233 536.664246,623.460571 531.757568,627.083679 
	C523.726135,633.014221 515.073914,638.130554 511.827515,648.491211 
	C509.488373,655.956604 503.753418,661.690735 500.529205,669.370728 
	C507.166962,668.532532 511.569733,664.477051 516.654419,661.885437 
	C536.569153,651.734802 556.003845,641.015381 572.712097,625.715454 
	C587.369995,612.293091 599.204224,597.601013 604.890015,578.025024 
	C607.776306,568.087585 610.603699,558.017212 614.533936,548.343933 
	C618.544495,538.473022 622.107544,528.420288 626.140503,517.714233 
M297.242645,862.247375 
	C301.689301,869.745056 308.180267,875.619507 313.383698,882.533508 
	C317.906738,888.543457 323.631470,891.529724 331.972382,890.075684 
	C342.089508,888.312073 352.114288,885.887268 362.550903,885.579224 
	C379.667175,885.073975 396.829498,884.607422 413.851196,882.531128 
	C442.448547,879.043030 470.845337,874.349915 498.620636,866.509216 
	C507.399872,864.030945 516.634888,863.891418 525.265137,860.515137 
	C534.573059,856.873718 542.967041,851.320984 552.555664,848.263245 
	C559.495667,846.050049 566.787659,843.957336 572.811951,840.083496 
	C582.153198,834.076660 592.537048,829.720642 600.865112,822.006287 
	C607.067688,816.260742 614.330444,811.671204 620.652222,806.040466 
	C633.015564,795.028809 638.586121,780.339966 641.951294,764.605042 
	C644.276611,753.732300 645.184692,743.295715 633.383911,736.770935 
	C629.585876,727.077698 620.524170,721.863281 614.259705,714.269409 
	C613.632141,713.508728 613.254211,712.546631 612.658875,711.754333 
	C608.056396,705.630310 602.330322,700.440308 598.392395,693.429749 
	C591.883606,700.258972 589.142029,709.046936 581.769958,715.088989 
	C581.706482,713.770813 581.484680,713.089783 581.676331,712.557739 
	C584.843079,703.769531 585.583862,694.404236 588.151428,685.458130 
	C589.265869,681.574890 590.710754,677.593323 590.048523,673.305176 
	C588.131287,660.889282 587.718201,648.379700 590.686768,636.148376 
	C592.445068,628.903748 592.935730,621.354309 595.778137,614.364258 
	C596.067627,613.652039 596.079407,612.699280 594.926697,612.226868 
	C592.383850,613.249634 591.292480,615.897766 589.353394,617.577576 
	C579.245483,626.333435 572.975891,638.493530 560.228943,645.289856 
	C542.151123,654.928467 523.305481,663.658997 507.337341,676.973999 
	C506.209656,677.914368 504.766846,678.486694 503.446167,679.184021 
	C495.205841,683.535461 486.876434,687.557617 477.680206,689.692627 
	C467.676544,692.015076 457.663452,694.942749 447.458191,695.196106 
	C429.695312,695.637207 411.778198,696.717651 394.194061,693.168945 
	C380.069794,690.318420 365.758514,687.758728 353.990509,678.143188 
	C351.024017,675.719177 348.529907,672.520325 344.922882,670.729004 
	C340.435028,678.556213 340.724854,687.322571 338.310120,695.389221 
	C334.654297,707.601990 334.192657,720.637146 333.489227,733.352234 
	C332.545593,750.410461 334.852417,767.550293 333.317017,784.660950 
	C333.169617,786.304016 333.297729,788.002747 333.526337,789.643799 
	C335.895935,806.655762 332.259338,822.321167 323.002869,836.716187 
	C319.941162,841.477539 316.775208,846.173279 313.583649,850.848938 
	C312.460327,852.494690 311.555725,854.593628 308.818329,854.607544 
	C308.818329,853.780273 308.659760,853.227295 308.848816,852.847351 
	C309.364655,851.810608 309.915466,850.754578 310.648041,849.867798 
	C326.092682,831.171326 328.458496,808.815125 326.289307,786.213806 
	C324.322754,765.723816 323.809113,745.478699 326.233429,725.100647 
	C326.358002,724.053406 327.170776,722.834473 325.529205,721.804199 
	C318.726562,727.035461 310.405151,728.781372 302.224335,730.437622 
	C298.541473,731.183289 296.954285,733.021851 295.225006,735.796509 
	C289.943573,744.270752 289.073853,754.051697 287.564270,763.421997 
	C285.570740,775.796570 285.142548,788.424805 284.082458,800.947510 
	C283.368744,809.378418 281.547211,817.721680 282.585999,826.286255 
	C284.173828,839.378357 291.113586,850.251709 297.242645,862.247375 
M683.585876,495.247467 
	C682.155090,496.585815 680.669250,496.929596 678.596558,496.536469 
	C672.870056,495.450348 669.358215,497.516113 665.996704,502.479187 
	C663.698303,505.872681 660.179688,507.675995 655.381226,507.943481 
	C656.181458,502.928101 657.227783,498.537262 661.108459,495.354034 
	C665.265930,491.943817 666.866333,487.382111 667.223206,482.188416 
	C667.414978,479.398254 665.939636,477.590118 663.649475,476.807953 
	C660.710083,475.804108 660.988892,478.784210 659.967896,480.291595 
	C656.243225,485.790649 657.086670,493.899323 650.038147,497.545410 
	C649.208557,497.974548 648.704163,499.490173 648.493225,500.587494 
	C645.938232,513.883484 639.822693,525.780518 633.969482,537.777649 
	C631.377319,543.090698 633.097900,548.883179 638.604614,550.979736 
	C646.389709,553.943787 654.064026,554.745056 661.977478,550.200378 
	C669.461304,545.902466 675.970276,540.174805 683.741150,536.298096 
	C686.409363,534.966980 689.468506,533.451233 691.284058,530.721558 
	C699.747742,517.996826 707.127319,504.697327 713.192200,490.635071 
	C716.797058,482.276855 719.469421,473.572693 722.964661,465.161713 
	C726.292786,457.153076 726.855774,447.790283 727.511047,438.939667 
	C728.055115,431.592224 728.901123,423.980316 725.682495,416.783142 
	C722.913757,410.591827 718.200378,408.391937 709.651917,408.496124 
	C703.169495,408.575165 702.240173,413.205719 701.357483,417.605164 
	C700.326294,422.744537 700.006470,428.041351 699.599060,433.287018 
	C699.207153,438.333435 698.151367,443.123535 695.247559,447.349762 
	C693.343750,450.120667 691.064392,450.842041 688.030640,448.796844 
	C685.727051,447.243866 683.817993,445.018250 680.898865,444.423126 
	C679.526978,444.143463 678.055359,442.635193 676.864868,444.385864 
	C675.582520,446.271637 677.186768,447.514496 678.420227,448.565948 
	C682.793518,452.293762 686.704651,456.261444 689.869019,461.236267 
	C695.103943,469.466339 695.361206,488.328278 683.585876,495.247467 
M483.853027,185.197174 
	C485.752045,186.105850 487.697479,185.580215 489.021271,184.416092 
	C495.268677,178.922180 501.752319,180.725540 508.610901,182.987549 
	C513.872192,184.722733 515.517639,189.184097 517.371094,193.316803 
	C518.599426,196.055634 514.677002,197.049973 513.713318,199.234833 
	C513.612183,199.464127 513.809265,199.824951 514.044189,201.024933 
	C520.354004,199.589828 527.284790,201.314087 532.892822,196.959427 
	C533.001099,194.880356 530.790466,194.042419 531.898132,192.089722 
	C536.820190,190.944901 542.578369,192.834244 547.336365,188.482895 
	C529.450562,184.834030 512.595032,178.166016 495.359131,173.054382 
	C495.424652,169.754868 499.643677,171.002457 499.956390,168.260788 
	C495.179199,166.016846 489.728149,167.653503 486.382172,172.419693 
	C486.711212,172.884064 487.025085,173.454651 487.456238,173.915588 
	C491.416718,178.149918 491.402100,178.102112 486.360901,180.552231 
	C484.648163,181.384674 482.458649,182.064774 483.853027,185.197174 
M304.103302,629.459045 
	C309.563660,636.992310 315.509155,644.229614 320.339752,652.147095 
	C324.649719,659.211365 329.629669,665.972961 332.568390,673.160950 
	C334.079590,665.960083 331.182892,659.360291 327.410492,652.582825 
	C323.350342,645.288513 317.380493,639.742859 312.101471,633.602844 
	C303.906616,624.071411 295.059875,615.100525 286.489441,605.891968 
	C291.361298,614.276428 297.155182,621.864075 304.103302,629.459045 
M543.733398,227.929794 
	C547.708130,228.625412 551.682922,229.321045 555.657654,230.016663 
	C551.911621,227.333099 548.062561,225.052124 544.004700,223.238342 
	C540.128723,221.505829 537.996948,219.780655 543.411560,216.045273 
	C533.839355,210.735840 525.316528,205.233459 513.763733,206.218674 
	C521.738525,209.057175 529.815186,210.479355 534.750549,218.221664 
	C531.041138,219.744843 527.504456,218.334000 524.570618,221.452393 
	C531.229431,223.262253 537.224976,225.122757 543.733398,227.929794 
M428.489319,196.141647 
	C432.357483,196.342819 436.293762,195.128494 439.986694,196.371841 
	C440.722412,198.307510 439.207031,199.469757 439.215454,200.956985 
	C439.224518,202.564316 439.525116,204.371246 441.455536,204.031296 
	C443.469238,203.676666 445.913330,203.181747 446.863770,201.010559 
	C447.691315,199.120026 446.417816,197.557953 445.091187,196.207123 
	C440.347992,191.377426 433.179810,190.018692 426.853912,192.787979 
	C425.780151,193.258041 424.488220,193.846191 424.819824,195.216782 
	C425.169220,196.660965 426.553894,196.450409 428.489319,196.141647 
M403.441010,189.524994 
	C398.379364,186.897598 386.856262,191.292252 385.485382,196.361267 
	C385.159821,197.565094 385.293579,198.646835 386.118378,199.611023 
	C386.729645,200.325516 387.638947,200.691025 388.295807,200.082825 
	C392.801666,195.910614 399.278534,194.793564 403.441010,189.524994 
M424.713654,176.294540 
	C423.239288,176.414139 421.701538,176.413651 420.922974,178.506500 
	C421.249390,178.726852 421.630676,179.033417 422.054169,179.261581 
	C423.947235,180.281509 427.397980,180.246338 426.551208,183.417404 
	C425.775635,186.321762 422.643982,186.062469 420.159851,185.897476 
	C417.588898,185.726715 415.249176,185.857437 413.397125,188.584824 
	C417.730957,189.020737 421.342438,187.076248 425.172241,186.558044 
	C428.208466,186.147217 430.672760,184.767685 430.606720,181.247116 
	C430.546539,178.041260 428.411865,176.644867 424.713654,176.294540 
M787.790222,563.456604 
	C786.794373,554.595276 784.227844,545.477783 781.448120,542.123352 
	C787.136353,555.473999 785.702209,569.439758 789.140259,582.508057 
	C790.758911,576.264465 789.329895,570.289368 787.790222,563.456604 
M403.080841,202.835510 
	C405.446136,203.302444 407.059906,201.967758 408.853973,200.709290 
	C411.136017,199.108490 413.015533,196.892593 411.307648,194.623413 
	C409.477509,192.191864 407.053589,194.170425 405.010254,195.507446 
	C407.293274,198.536560 407.254089,198.487793 404.823822,200.441391 
	C404.000824,201.102997 402.433472,201.166489 403.080841,202.835510 
M474.106110,196.232971 
	C479.559387,201.094238 482.013184,193.833969 486.138672,193.247772 
	C481.228271,189.563965 478.076141,194.864243 474.106110,196.232971 
M615.154968,639.282227 
	C613.535522,643.217041 613.559143,647.135254 614.945435,651.800293 
	C619.703308,646.538757 616.586914,641.398376 616.304077,636.428162 
	C615.990967,637.163147 615.677917,637.898132 615.154968,639.282227 
M490.232300,207.164291 
	C490.107544,207.270447 489.907410,207.360031 489.879364,207.487473 
	C489.851562,207.613922 489.965546,207.878555 490.071106,207.911774 
	C493.334167,208.938919 496.536926,210.757294 500.626465,208.904846 
	C497.395721,205.771347 494.070740,206.441559 490.232300,207.164291 
M448.050507,193.611877 
	C451.895020,194.381897 452.017761,194.108887 451.179108,186.329391 
	C450.959290,189.063309 447.130737,189.862381 448.050507,193.611877 
z"/>
<path fill="#616161" opacity="1.000000" stroke="none" 
	d="
M460.750031,944.404419 
	C455.832672,944.403992 451.383820,944.403992 446.736725,944.403992 
	C446.712830,940.530212 449.131165,938.336304 451.130402,937.049500 
	C456.801483,933.399292 460.913269,928.132629 466.002106,923.909119 
	C471.558441,919.297607 477.458282,915.436279 484.100159,912.616028 
	C486.369263,911.652527 488.477875,910.262512 490.548676,908.898682 
	C491.789276,908.081726 492.972015,906.524780 494.314850,908.239502 
	C495.611267,909.894836 493.838440,910.919189 492.839233,911.914246 
	C488.601135,916.134460 484.477509,920.489319 480.008514,924.452637 
	C475.149109,928.762207 472.827820,934.731750 469.267517,939.877686 
	C467.204712,942.859192 465.091034,944.994080 460.750031,944.404419 
z"/>
<path fill="#616161" opacity="1.000000" stroke="none" 
	d="
M149.732269,854.787354 
	C156.557159,839.506470 161.516724,824.071289 164.153137,807.872070 
	C164.975189,802.821045 166.791351,797.920471 168.308716,792.999268 
	C168.938431,790.956909 169.782410,788.373230 172.553101,789.012146 
	C175.467682,789.684265 175.318542,792.365906 174.916748,794.739380 
	C172.748947,807.544617 169.997299,820.094910 164.029739,831.884766 
	C156.669983,846.425110 150.652969,861.655640 141.190125,875.082947 
	C140.296082,876.351562 139.836166,878.025085 137.235413,877.977112 
	C141.354553,870.363770 145.473694,862.750427 149.732269,854.787354 
z"/>
<path fill="#616161" opacity="1.000000" stroke="none" 
	d="
M664.934082,829.340393 
	C658.632874,829.141479 652.869202,829.333801 647.268982,831.258118 
	C646.068481,831.670654 644.434631,831.896545 643.878662,830.207092 
	C643.321472,828.513733 644.765015,827.789246 645.986023,827.362610 
	C659.926941,822.492065 673.744141,821.144897 687.132812,829.128479 
	C687.642944,829.432678 687.932800,830.106140 688.443237,830.758179 
	C686.448120,833.687195 683.988892,833.090698 681.397339,832.179871 
	C676.229492,830.363647 671.004761,828.806641 664.934082,829.340393 
z"/>
<path fill="#616161" opacity="1.000000" stroke="none" 
	d="
M590.777344,132.876129 
	C587.744446,131.076157 583.736572,134.132980 581.406250,130.436386 
	C585.858032,126.069099 592.184937,127.641251 597.172668,125.258156 
	C593.555969,119.206581 586.161255,118.245354 579.819458,123.189751 
	C576.784241,125.556175 573.940125,124.790947 570.921448,124.824715 
	C570.583679,122.899361 572.050842,122.638458 572.729797,121.786789 
	C574.675354,119.346184 573.503479,116.649162 570.411316,116.112404 
	C565.808228,115.313347 560.975708,115.354683 556.778381,112.422386 
	C562.715027,110.154488 568.370605,106.647858 574.985535,110.177887 
	C579.105225,112.376289 583.315735,114.523811 587.859680,115.561249 
	C597.487061,117.759254 604.820007,124.567146 613.774597,128.093521 
	C615.214294,128.660492 616.316528,130.198792 617.447449,131.407196 
	C618.929016,132.990173 620.828308,134.841293 619.540161,137.063873 
	C618.108215,139.534454 615.950806,137.202423 614.164307,136.977661 
	C606.439087,136.005692 599.342590,131.485245 590.777344,132.876129 
z"/>
<path fill="#616161" opacity="1.000000" stroke="none" 
	d="
M650.109802,201.941635 
	C653.276917,207.044937 656.934692,211.474030 658.505920,217.076706 
	C647.591003,209.819458 641.231628,198.715836 633.616028,188.617783 
	C641.421448,190.095459 645.714111,195.816177 650.109802,201.941635 
z"/>
<path fill="#616161" opacity="1.000000" stroke="none" 
	d="
M619.246826,220.822418 
	C620.252930,222.117767 621.428101,223.046204 620.048462,225.011017 
	C610.872864,220.476410 605.502747,210.753708 595.726379,207.122711 
	C598.002747,203.986404 600.233276,203.948242 603.764832,206.972137 
	C607.545898,210.209717 611.213623,213.579651 614.928162,216.894821 
	C616.290955,218.111115 617.645996,219.336090 619.246826,220.822418 
z"/>
<path fill="#616161" opacity="1.000000" stroke="none" 
	d="
M579.729126,164.395844 
	C571.531799,162.055359 564.774536,157.336365 556.190308,155.661102 
	C559.718933,152.248550 580.658325,158.882919 585.229858,163.754639 
	C583.875671,166.451401 581.902893,164.871155 579.729126,164.395844 
z"/>
<path fill="#616161" opacity="1.000000" stroke="none" 
	d="
M556.481812,126.868881 
	C558.333496,125.093376 560.096130,126.401245 561.717773,126.813118 
	C568.851196,128.624969 575.560425,131.530334 582.871460,135.190796 
	C579.629822,137.097427 577.272644,136.363434 575.145203,135.390793 
	C568.955688,132.560989 562.019958,131.441071 556.481812,126.868881 
z"/>
<path fill="#616161" opacity="1.000000" stroke="none" 
	d="
M594.190430,146.044312 
	C592.274963,145.070114 589.929932,144.417892 591.033691,142.082825 
	C592.020569,139.994873 594.060425,141.529373 595.484680,141.912643 
	C600.882019,143.365005 605.186646,146.369141 609.034607,152.241058 
	C602.171448,152.812012 599.866333,145.656174 594.190430,146.044312 
z"/>
<path fill="#616161" opacity="1.000000" stroke="none" 
	d="
M696.190186,647.822144 
	C695.958557,642.987305 695.436096,638.461975 697.576477,633.873596 
	C700.152344,637.108582 700.645874,646.202942 698.664917,648.553772 
	C697.847046,649.524231 696.947876,649.283936 696.190186,647.822144 
z"/>
<path fill="#616161" opacity="1.000000" stroke="none" 
	d="
M633.338745,141.616913 
	C634.553589,142.927109 635.987854,143.708786 635.865234,145.460388 
	C631.874329,146.338898 628.365051,143.968918 626.532043,139.086304 
	C629.693298,137.107224 631.279419,139.586121 633.338745,141.616913 
z"/>
<path fill="#616161" opacity="1.000000" stroke="none" 
	d="
M695.136230,204.542084 
	C696.718445,208.459732 695.903198,212.736649 699.327393,216.038223 
	C694.231934,215.176620 693.996460,214.730988 692.099976,203.430725 
	C693.447266,202.271866 694.086853,203.594391 695.136230,204.542084 
z"/>
<path fill="#616161" opacity="1.000000" stroke="none" 
	d="
M506.414551,827.389771 
	C514.621582,821.727966 522.678650,816.496399 530.254700,810.551636 
	C536.130981,805.940674 538.743103,806.522644 541.554993,812.237671 
	C542.917480,815.006836 542.406860,817.065186 539.432678,818.222778 
	C536.803711,819.245972 534.211609,820.543884 531.477478,821.085266 
	C520.654419,823.228333 511.395538,828.672180 502.222076,834.385010 
	C500.322754,835.567810 498.449615,837.002441 495.205811,837.182739 
	C496.854492,830.948853 502.843170,830.769592 506.414551,827.389771 
z"/>
<path fill="#616161" opacity="1.000000" stroke="none" 
	d="
M368.517578,824.429077 
	C379.478699,800.059692 383.855988,792.919312 389.069946,790.865295 
	C390.348511,797.289246 372.563354,828.889282 366.899689,830.120117 
	C365.622864,827.856323 367.646667,826.470947 368.517578,824.429077 
z"/>
<path fill="#616161" opacity="1.000000" stroke="none" 
	d="
M718.367554,446.090302 
	C718.762207,452.369415 718.379150,457.867401 712.319214,461.219482 
	C710.161316,458.832001 709.946228,455.860779 710.080627,452.889404 
	C710.355957,446.801849 709.092346,441.007080 707.038147,435.346497 
	C706.275452,433.244720 705.346313,430.936523 707.648071,429.497955 
	C710.076111,427.980499 712.873413,428.195312 714.980347,430.326630 
	C717.481140,432.856323 719.087769,435.853455 718.637573,439.652374 
	C718.403809,441.625610 718.448547,443.631836 718.367554,446.090302 
z"/>
<path fill="#616161" opacity="1.000000" stroke="none" 
	d="
M704.891724,490.889679 
	C702.274353,497.733307 700.102722,504.413025 693.549988,508.255341 
	C692.471191,508.887939 691.734863,510.346893 689.231140,508.777954 
	C699.393799,498.886536 704.742554,486.382172 708.553467,472.792603 
	C712.062317,476.145386 710.119263,484.242889 704.891724,490.889679 
z"/>
<path fill="#616161" opacity="1.000000" stroke="none" 
	d="
M644.511719,517.955200 
	C645.545105,515.260742 646.494019,512.885010 647.784790,509.653290 
	C650.457397,513.737488 647.697021,515.904480 646.588623,518.274353 
	C646.120789,519.274536 645.142456,520.335754 644.511719,517.955200 
z"/>
</svg>